<?xml version="1.0" encoding="utf-8" standalone="no"?>
<!DOCTYPE svg PUBLIC "-//W3C//DTD SVG 1.1//EN"
  "http://www.w3.org/Graphics/SVG/1.1/DTD/svg11.dtd">
<svg xmlns:xlink="http://www.w3.org/1999/xlink" width="864pt" height="489.6pt" viewBox="0 0 864 489.6" xmlns="http://www.w3.org/2000/svg" version="1.1">
 <metadata>
  <rdf:RDF xmlns:dc="http://purl.org/dc/elements/1.1/" xmlns:cc="http://creativecommons.org/ns#" xmlns:rdf="http://www.w3.org/1999/02/22-rdf-syntax-ns#">
   <cc:Work>
    <dc:type rdf:resource="http://purl.org/dc/dcmitype/StillImage"/>
    <dc:date>2026-09-29T17:52:54.758620</dc:date>
    <dc:format>image/svg+xml</dc:format>
    <dc:creator>
     <cc:Agent>
      <dc:title>Matplotlib v3.9.4, https://matplotlib.org/</dc:title>
     </cc:Agent>
    </dc:creator>
   </cc:Work>
  </rdf:RDF>
 </metadata>
 <defs>
  <style type="text/css">*{stroke-linejoin: round; stroke-linecap: butt}</style>
 </defs>
 <g id="figure_1">
  <g id="patch_1">
   <path d="M 0 489.6
L 864 489.6
L 864 0
L 0 0
z
" style="fill: #f8fafc"/>
  </g>
  <g id="axes_1">
   <g id="patch_2">
    <path d="M 140.4 162
L 270 162
Q 280.8 162 280.8 172.8
L 280.8 201.6
Q 280.8 212.4 270 212.4
L 140.4 212.4
Q 129.6 212.4 129.6 201.6
L 129.6 172.8
Q 129.6 162 140.4 162
z
" clip-path="url(#pd35868930f)" style="fill: #dbeafe; stroke: #2563eb; stroke-width: 1.6; stroke-linejoin: miter"/>
   </g>
   <g id="patch_3">
    <path d="M 594 162
L 723.6 162
Q 734.4 162 734.4 172.8
L 734.4 201.6
Q 734.4 212.4 723.6 212.4
L 594 212.4
Q 583.2 212.4 583.2 201.6
L 583.2 172.8
Q 583.2 162 594 162
z
" clip-path="url(#pd35868930f)" style="fill: #dcfce7; stroke: #15803d; stroke-width: 1.6; stroke-linejoin: miter"/>
   </g>
   <g id="patch_4">
    <path d="M 140.4 241.2
L 270 241.2
Q 280.8 241.2 280.8 252
L 280.8 280.8
Q 280.8 291.6 270 291.6
L 140.4 291.6
Q 129.6 291.6 129.6 280.8
L 129.6 252
Q 129.6 241.2 140.4 241.2
z
" clip-path="url(#pd35868930f)" style="fill: #dbeafe; stroke: #2563eb; stroke-width: 1.6; stroke-linejoin: miter"/>
   </g>
   <g id="patch_5">
    <path d="M 594 241.2
L 723.6 241.2
Q 734.4 241.2 734.4 252
L 734.4 280.8
Q 734.4 291.6 723.6 291.6
L 594 291.6
Q 583.2 291.6 583.2 280.8
L 583.2 252
Q 583.2 241.2 594 241.2
z
" clip-path="url(#pd35868930f)" style="fill: #dcfce7; stroke: #15803d; stroke-width: 1.6; stroke-linejoin: miter"/>
   </g>
   <g id="patch_6">
    <path d="M 140.4 320.4
L 270 320.4
Q 280.8 320.4 280.8 331.2
L 280.8 360
Q 280.8 370.8 270 370.8
L 140.4 370.8
Q 129.6 370.8 129.6 360
L 129.6 331.2
Q 129.6 320.4 140.4 320.4
z
" clip-path="url(#pd35868930f)" style="fill: #dbeafe; stroke: #2563eb; stroke-width: 1.6; stroke-linejoin: miter"/>
   </g>
   <g id="patch_7">
    <path d="M 594 320.4
L 723.6 320.4
Q 734.4 320.4 734.4 331.2
L 734.4 360
Q 734.4 370.8 723.6 370.8
L 594 370.8
Q 583.2 370.8 583.2 360
L 583.2 331.2
Q 583.2 320.4 594 320.4
z
" clip-path="url(#pd35868930f)" style="fill: #dcfce7; stroke: #15803d; stroke-width: 1.6; stroke-linejoin: miter"/>
   </g>
   <g id="patch_8">
    <path d="M 284.892759 187.716028
Q 431.2818 226.80048 574.64629 265.077408
" clip-path="url(#pd35868930f)" style="fill: none; stroke: #7c3aed; stroke-width: 2.8; stroke-linecap: round"/>
    <path d="M 567.948852 259.149143
L 574.64629 265.077408
L 565.885216 266.878399
z
" clip-path="url(#pd35868930f)" style="fill: #7c3aed; stroke: #7c3aed; stroke-width: 2.8; stroke-linecap: round"/>
   </g>
   <g id="patch_9">
    <path d="M 284.956128 266.4
Q 431.277724 266.4 574.468825 266.4
" clip-path="url(#pd35868930f)" style="fill: none; stroke: #7c3aed; stroke-width: 2.8; stroke-linecap: round"/>
    <path d="M 566.468825 262.4
L 574.468825 266.4
L 566.468825 270.4
z
" clip-path="url(#pd35868930f)" style="fill: #7c3aed; stroke: #7c3aed; stroke-width: 2.8; stroke-linecap: round"/>
   </g>
   <g id="patch_10">
    <path d="M 284.72302 344.658582
Q 431.27849 266.400806 575.072501 189.617597
" clip-path="url(#pd35868930f)" style="fill: none; stroke: #7c3aed; stroke-width: 2.8; stroke-linecap: round"/>
    <path d="M 566.131444 189.857395
L 575.072501 189.617597
L 569.899705 196.914321
z
" clip-path="url(#pd35868930f)" style="fill: #7c3aed; stroke: #7c3aed; stroke-width: 2.8; stroke-linecap: round"/>
   </g>
   <g id="patch_11">
    <path d="M 208.8 390.24
L 655.2 390.24
Q 666 390.24 666 401.04
L 666 449.28
Q 666 460.08 655.2 460.08
L 208.8 460.08
Q 198 460.08 198 449.28
L 198 401.04
Q 198 390.24 208.8 390.24
z
" clip-path="url(#pd35868930f)" style="fill: #ede9fe; stroke: #7c3aed; stroke-width: 1.6; stroke-linejoin: miter"/>
   </g>
   <g id="text_1">
    <!-- Swap regret: замена зависит от исходного действия -->
    <g style="fill: #14243c" transform="translate(39.6 46.009687) scale(0.26 -0.26)">
     <defs>
      <path id="DejaVuSans-Bold-53" d="M 3834 4519
L 3834 3531
Q 3450 3703 3084 3790
Q 2719 3878 2394 3878
Q 1963 3878 1756 3759
Q 1550 3641 1550 3391
Q 1550 3203 1689 3098
Q 1828 2994 2194 2919
L 2706 2816
Q 3484 2659 3812 2340
Q 4141 2022 4141 1434
Q 4141 663 3683 286
Q 3225 -91 2284 -91
Q 1841 -91 1394 -6
Q 947 78 500 244
L 500 1259
Q 947 1022 1364 901
Q 1781 781 2169 781
Q 2563 781 2772 912
Q 2981 1044 2981 1288
Q 2981 1506 2839 1625
Q 2697 1744 2272 1838
L 1806 1941
Q 1106 2091 782 2419
Q 459 2747 459 3303
Q 459 4000 909 4375
Q 1359 4750 2203 4750
Q 2588 4750 2994 4692
Q 3400 4634 3834 4519
z
" transform="scale(0.015625)"/>
      <path id="DejaVuSans-Bold-77" d="M 225 3500
L 1313 3500
L 1900 1088
L 2491 3500
L 3425 3500
L 4013 1113
L 4603 3500
L 5691 3500
L 4769 0
L 3547 0
L 2956 2406
L 2369 0
L 1147 0
L 225 3500
z
" transform="scale(0.015625)"/>
      <path id="DejaVuSans-Bold-61" d="M 2106 1575
Q 1756 1575 1579 1456
Q 1403 1338 1403 1106
Q 1403 894 1545 773
Q 1688 653 1941 653
Q 2256 653 2472 879
Q 2688 1106 2688 1447
L 2688 1575
L 2106 1575
z
M 3816 1997
L 3816 0
L 2688 0
L 2688 519
Q 2463 200 2181 54
Q 1900 -91 1497 -91
Q 953 -91 614 226
Q 275 544 275 1050
Q 275 1666 698 1953
Q 1122 2241 2028 2241
L 2688 2241
L 2688 2328
Q 2688 2594 2478 2717
Q 2269 2841 1825 2841
Q 1466 2841 1156 2769
Q 847 2697 581 2553
L 581 3406
Q 941 3494 1303 3539
Q 1666 3584 2028 3584
Q 2975 3584 3395 3211
Q 3816 2838 3816 1997
z
" transform="scale(0.015625)"/>
      <path id="DejaVuSans-Bold-70" d="M 1656 506
L 1656 -1331
L 538 -1331
L 538 3500
L 1656 3500
L 1656 2988
Q 1888 3294 2169 3439
Q 2450 3584 2816 3584
Q 3463 3584 3878 3070
Q 4294 2556 4294 1747
Q 4294 938 3878 423
Q 3463 -91 2816 -91
Q 2450 -91 2169 54
Q 1888 200 1656 506
z
M 2400 2772
Q 2041 2772 1848 2508
Q 1656 2244 1656 1747
Q 1656 1250 1848 986
Q 2041 722 2400 722
Q 2759 722 2948 984
Q 3138 1247 3138 1747
Q 3138 2247 2948 2509
Q 2759 2772 2400 2772
z
" transform="scale(0.015625)"/>
      <path id="DejaVuSans-Bold-20" transform="scale(0.015625)"/>
      <path id="DejaVuSans-Bold-72" d="M 3138 2547
Q 2991 2616 2845 2648
Q 2700 2681 2553 2681
Q 2122 2681 1889 2404
Q 1656 2128 1656 1613
L 1656 0
L 538 0
L 538 3500
L 1656 3500
L 1656 2925
Q 1872 3269 2151 3426
Q 2431 3584 2822 3584
Q 2878 3584 2943 3579
Q 3009 3575 3134 3559
L 3138 2547
z
" transform="scale(0.015625)"/>
      <path id="DejaVuSans-Bold-65" d="M 4031 1759
L 4031 1441
L 1416 1441
Q 1456 1047 1700 850
Q 1944 653 2381 653
Q 2734 653 3104 758
Q 3475 863 3866 1075
L 3866 213
Q 3469 63 3072 -14
Q 2675 -91 2278 -91
Q 1328 -91 801 392
Q 275 875 275 1747
Q 275 2603 792 3093
Q 1309 3584 2216 3584
Q 3041 3584 3536 3087
Q 4031 2591 4031 1759
z
M 2881 2131
Q 2881 2450 2695 2645
Q 2509 2841 2209 2841
Q 1884 2841 1681 2658
Q 1478 2475 1428 2131
L 2881 2131
z
" transform="scale(0.015625)"/>
      <path id="DejaVuSans-Bold-67" d="M 2919 594
Q 2688 288 2409 144
Q 2131 0 1766 0
Q 1125 0 706 504
Q 288 1009 288 1791
Q 288 2575 706 3076
Q 1125 3578 1766 3578
Q 2131 3578 2409 3434
Q 2688 3291 2919 2981
L 2919 3500
L 4044 3500
L 4044 353
Q 4044 -491 3511 -936
Q 2978 -1381 1966 -1381
Q 1638 -1381 1331 -1331
Q 1025 -1281 716 -1178
L 716 -306
Q 1009 -475 1290 -558
Q 1572 -641 1856 -641
Q 2406 -641 2662 -400
Q 2919 -159 2919 353
L 2919 594
z
M 2181 2772
Q 1834 2772 1640 2515
Q 1447 2259 1447 1791
Q 1447 1309 1634 1061
Q 1822 813 2181 813
Q 2531 813 2725 1069
Q 2919 1325 2919 1791
Q 2919 2259 2725 2515
Q 2531 2772 2181 2772
z
" transform="scale(0.015625)"/>
      <path id="DejaVuSans-Bold-74" d="M 1759 4494
L 1759 3500
L 2913 3500
L 2913 2700
L 1759 2700
L 1759 1216
Q 1759 972 1856 886
Q 1953 800 2241 800
L 2816 800
L 2816 0
L 1856 0
Q 1194 0 917 276
Q 641 553 641 1216
L 641 2700
L 84 2700
L 84 3500
L 641 3500
L 641 4494
L 1759 4494
z
" transform="scale(0.015625)"/>
      <path id="DejaVuSans-Bold-3a" d="M 716 3500
L 1844 3500
L 1844 2291
L 716 2291
L 716 3500
z
M 716 1209
L 1844 1209
L 1844 0
L 716 0
L 716 1209
z
" transform="scale(0.015625)"/>
      <path id="DejaVuSans-Bold-437" d="M 900 2181
L 1413 2181
Q 1872 2181 2039 2281
Q 2206 2381 2206 2519
Q 2206 2841 1469 2841
Q 853 2841 472 2625
L 472 3434
Q 1041 3584 1713 3584
Q 2500 3584 2862 3361
Q 3225 3138 3225 2666
Q 3225 2047 2541 1888
Q 3313 1697 3313 994
Q 3313 453 2888 181
Q 2463 -91 1553 -91
Q 875 -91 313 84
L 313 947
Q 1013 653 1428 653
Q 1884 653 2089 776
Q 2294 900 2294 1056
Q 2294 1491 1394 1491
L 900 1491
L 900 2181
z
" transform="scale(0.015625)"/>
      <path id="DejaVuSans-Bold-430" d="M 2106 1575
Q 1756 1575 1579 1456
Q 1403 1338 1403 1106
Q 1403 894 1545 773
Q 1688 653 1941 653
Q 2256 653 2472 879
Q 2688 1106 2688 1447
L 2688 1575
L 2106 1575
z
M 3816 1997
L 3816 0
L 2688 0
L 2688 519
Q 2463 200 2181 54
Q 1900 -91 1497 -91
Q 953 -91 614 226
Q 275 544 275 1050
Q 275 1666 698 1953
Q 1122 2241 2028 2241
L 2688 2241
L 2688 2328
Q 2688 2594 2478 2717
Q 2269 2841 1825 2841
Q 1466 2841 1156 2769
Q 847 2697 581 2553
L 581 3406
Q 941 3494 1303 3539
Q 1666 3584 2028 3584
Q 2975 3584 3395 3211
Q 3816 2838 3816 1997
z
" transform="scale(0.015625)"/>
      <path id="DejaVuSans-Bold-43c" d="M 538 3500
L 1825 3500
L 2613 1750
L 3400 3500
L 4691 3500
L 4691 0
L 3575 0
L 3575 1984
L 2984 672
L 2250 672
L 1656 1984
L 1656 0
L 538 0
L 538 3500
z
" transform="scale(0.015625)"/>
      <path id="DejaVuSans-Bold-435" d="M 4031 1759
L 4031 1441
L 1416 1441
Q 1456 1047 1700 850
Q 1944 653 2381 653
Q 2734 653 3104 758
Q 3475 863 3866 1075
L 3866 213
Q 3469 63 3072 -14
Q 2675 -91 2278 -91
Q 1328 -91 801 392
Q 275 875 275 1747
Q 275 2603 792 3093
Q 1309 3584 2216 3584
Q 3041 3584 3536 3087
Q 4031 2591 4031 1759
z
M 2881 2131
Q 2881 2450 2695 2645
Q 2509 2841 2209 2841
Q 1884 2841 1681 2658
Q 1478 2475 1428 2131
L 2881 2131
z
" transform="scale(0.015625)"/>
      <path id="DejaVuSans-Bold-43d" d="M 538 3500
L 1656 3500
L 1656 2169
L 2766 2169
L 2766 3500
L 3884 3500
L 3884 0
L 2766 0
L 2766 1478
L 1656 1478
L 1656 0
L 538 0
L 538 3500
z
" transform="scale(0.015625)"/>
      <path id="DejaVuSans-Bold-432" d="M 2184 2181
Q 2378 2181 2478 2261
Q 2578 2341 2578 2497
Q 2578 2653 2478 2731
Q 2378 2809 2184 2809
L 1656 2809
L 1656 2181
L 2184 2181
z
M 2222 700
Q 2469 700 2594 798
Q 2719 897 2719 1094
Q 2719 1288 2594 1384
Q 2469 1481 2222 1481
L 1656 1481
L 1656 700
L 2222 700
z
M 538 3500
L 2141 3500
Q 2919 3500 3267 3279
Q 3616 3059 3616 2575
Q 3616 2319 3487 2139
Q 3359 1959 3119 1872
Q 3428 1788 3598 1561
Q 3769 1334 3769 1003
Q 3769 497 3403 248
Q 3038 0 2294 0
L 538 0
L 538 3500
z
" transform="scale(0.015625)"/>
      <path id="DejaVuSans-Bold-438" d="M 3947 3500
L 3947 0
L 2828 0
L 2828 1863
L 1700 0
L 538 0
L 538 3500
L 1656 3500
L 1656 1638
L 2784 3500
L 3947 3500
z
" transform="scale(0.015625)"/>
      <path id="DejaVuSans-Bold-441" d="M 3366 3391
L 3366 2478
Q 3138 2634 2908 2709
Q 2678 2784 2431 2784
Q 1963 2784 1702 2511
Q 1441 2238 1441 1747
Q 1441 1256 1702 982
Q 1963 709 2431 709
Q 2694 709 2930 787
Q 3166 866 3366 1019
L 3366 103
Q 3103 6 2833 -42
Q 2563 -91 2291 -91
Q 1344 -91 809 395
Q 275 881 275 1747
Q 275 2613 809 3098
Q 1344 3584 2291 3584
Q 2566 3584 2833 3536
Q 3100 3488 3366 3391
z
" transform="scale(0.015625)"/>
      <path id="DejaVuSans-Bold-442" d="M 25 3500
L 3681 3500
L 3681 2809
L 2413 2809
L 2413 0
L 1297 0
L 1297 2809
L 25 2809
L 25 3500
z
" transform="scale(0.015625)"/>
      <path id="DejaVuSans-Bold-43e" d="M 2203 2784
Q 1831 2784 1636 2517
Q 1441 2250 1441 1747
Q 1441 1244 1636 976
Q 1831 709 2203 709
Q 2569 709 2762 976
Q 2956 1244 2956 1747
Q 2956 2250 2762 2517
Q 2569 2784 2203 2784
z
M 2203 3584
Q 3106 3584 3614 3096
Q 4122 2609 4122 1747
Q 4122 884 3614 396
Q 3106 -91 2203 -91
Q 1297 -91 786 396
Q 275 884 275 1747
Q 275 2609 786 3096
Q 1297 3584 2203 3584
z
" transform="scale(0.015625)"/>
      <path id="DejaVuSans-Bold-445" d="M 1422 1791
L 159 3500
L 1344 3500
L 2059 2463
L 2784 3500
L 3969 3500
L 2706 1797
L 4031 0
L 2847 0
L 2059 1106
L 1281 0
L 97 0
L 1422 1791
z
" transform="scale(0.015625)"/>
      <path id="DejaVuSans-Bold-434" d="M 547 800
Q 903 919 1053 1314
Q 1203 1709 1203 2838
L 1203 3500
L 4228 3500
L 4228 800
L 4809 800
L 4809 -884
L 4009 -884
L 4009 0
L 1159 0
L 1159 -884
L 359 -884
L 359 800
L 547 800
z
M 3109 2700
L 2322 2700
L 2322 2603
Q 2322 1456 2063 800
L 3109 800
L 3109 2700
z
" transform="scale(0.015625)"/>
      <path id="DejaVuSans-Bold-433" d="M 538 0
L 538 3500
L 3191 3500
L 3191 2809
L 1656 2809
L 1656 0
L 538 0
z
" transform="scale(0.015625)"/>
      <path id="DejaVuSans-Bold-439" d="M 3947 3500
L 3947 0
L 2828 0
L 2828 1863
L 1700 0
L 538 0
L 538 3500
L 1656 3500
L 1656 1638
L 2784 3500
L 3947 3500
z
M 1190 4891
L 1637 4891
Q 1671 4672 1826 4556
Q 1981 4441 2240 4441
Q 2499 4441 2654 4556
Q 2809 4672 2843 4891
L 3290 4891
Q 3271 4441 2999 4202
Q 2728 3963 2240 3963
Q 1753 3963 1481 4202
Q 1209 4441 1190 4891
z
" transform="scale(0.015625)"/>
      <path id="DejaVuSans-Bold-44f" d="M 1528 2394
Q 1528 2169 1651 2069
Q 1775 1969 2059 1969
L 2463 1969
L 2463 2816
L 2059 2816
Q 1775 2816 1651 2719
Q 1528 2622 1528 2394
z
M 197 0
L 1113 1497
Q 847 1650 650 1917
Q 453 2184 453 2516
Q 453 3013 789 3256
Q 1125 3500 1878 3500
L 3581 3500
L 3581 0
L 2463 0
L 2463 1278
L 2069 1278
L 1288 0
L 197 0
z
" transform="scale(0.015625)"/>
     </defs>
     <use xlink:href="#DejaVuSans-Bold-53"/>
     <use xlink:href="#DejaVuSans-Bold-77" x="72.021484"/>
     <use xlink:href="#DejaVuSans-Bold-61" x="164.404297"/>
     <use xlink:href="#DejaVuSans-Bold-70" x="231.884766"/>
     <use xlink:href="#DejaVuSans-Bold-20" x="303.466797"/>
     <use xlink:href="#DejaVuSans-Bold-72" x="338.28125"/>
     <use xlink:href="#DejaVuSans-Bold-65" x="387.597656"/>
     <use xlink:href="#DejaVuSans-Bold-67" x="455.419922"/>
     <use xlink:href="#DejaVuSans-Bold-72" x="527.001953"/>
     <use xlink:href="#DejaVuSans-Bold-65" x="576.318359"/>
     <use xlink:href="#DejaVuSans-Bold-74" x="644.140625"/>
     <use xlink:href="#DejaVuSans-Bold-3a" x="691.943359"/>
     <use xlink:href="#DejaVuSans-Bold-20" x="731.933594"/>
     <use xlink:href="#DejaVuSans-Bold-437" x="766.748047"/>
     <use xlink:href="#DejaVuSans-Bold-430" x="824.853516"/>
     <use xlink:href="#DejaVuSans-Bold-43c" x="892.333984"/>
     <use xlink:href="#DejaVuSans-Bold-435" x="974.072266"/>
     <use xlink:href="#DejaVuSans-Bold-43d" x="1041.894531"/>
     <use xlink:href="#DejaVuSans-Bold-430" x="1110.986328"/>
     <use xlink:href="#DejaVuSans-Bold-20" x="1178.466797"/>
     <use xlink:href="#DejaVuSans-Bold-437" x="1213.28125"/>
     <use xlink:href="#DejaVuSans-Bold-430" x="1271.386719"/>
     <use xlink:href="#DejaVuSans-Bold-432" x="1338.867188"/>
     <use xlink:href="#DejaVuSans-Bold-438" x="1402.148438"/>
     <use xlink:href="#DejaVuSans-Bold-441" x="1472.216797"/>
     <use xlink:href="#DejaVuSans-Bold-438" x="1531.494141"/>
     <use xlink:href="#DejaVuSans-Bold-442" x="1601.5625"/>
     <use xlink:href="#DejaVuSans-Bold-20" x="1659.521484"/>
     <use xlink:href="#DejaVuSans-Bold-43e" x="1694.335938"/>
     <use xlink:href="#DejaVuSans-Bold-442" x="1763.037109"/>
     <use xlink:href="#DejaVuSans-Bold-20" x="1820.996094"/>
     <use xlink:href="#DejaVuSans-Bold-438" x="1855.810547"/>
     <use xlink:href="#DejaVuSans-Bold-441" x="1925.878906"/>
     <use xlink:href="#DejaVuSans-Bold-445" x="1985.15625"/>
     <use xlink:href="#DejaVuSans-Bold-43e" x="2049.658203"/>
     <use xlink:href="#DejaVuSans-Bold-434" x="2118.359375"/>
     <use xlink:href="#DejaVuSans-Bold-43d" x="2199.121094"/>
     <use xlink:href="#DejaVuSans-Bold-43e" x="2268.212891"/>
     <use xlink:href="#DejaVuSans-Bold-433" x="2336.914062"/>
     <use xlink:href="#DejaVuSans-Bold-43e" x="2389.160156"/>
     <use xlink:href="#DejaVuSans-Bold-20" x="2457.861328"/>
     <use xlink:href="#DejaVuSans-Bold-434" x="2492.675781"/>
     <use xlink:href="#DejaVuSans-Bold-435" x="2573.4375"/>
     <use xlink:href="#DejaVuSans-Bold-439" x="2641.259766"/>
     <use xlink:href="#DejaVuSans-Bold-441" x="2711.328125"/>
     <use xlink:href="#DejaVuSans-Bold-442" x="2770.605469"/>
     <use xlink:href="#DejaVuSans-Bold-432" x="2828.564453"/>
     <use xlink:href="#DejaVuSans-Bold-438" x="2891.845703"/>
     <use xlink:href="#DejaVuSans-Bold-44f" x="2961.914062"/>
    </g>
   </g>
   <g id="text_2">
    <!-- Функция $f$ не обязана быть перестановкой -->
    <g style="fill: #475569" transform="translate(39.6 76.56) scale(0.16 -0.16)">
     <defs>
      <path id="DejaVuSans-424" d="M 2441 3706
Q 1763 3644 1403 3325
Q 1044 3006 1044 2391
Q 1044 1775 1403 1458
Q 1763 1141 2441 1078
L 2441 3706
z
M 3075 1078
Q 3753 1141 4109 1458
Q 4466 1775 4466 2391
Q 4466 3006 4109 3325
Q 3753 3644 3075 3706
L 3075 1078
z
M 2441 556
Q 1450 628 914 1095
Q 378 1563 378 2391
Q 378 3219 914 3689
Q 1450 4159 2441 4231
L 2441 4666
L 3075 4666
L 3075 4231
Q 4066 4159 4598 3692
Q 5131 3225 5131 2391
Q 5131 1563 4598 1095
Q 4066 628 3075 556
L 3075 0
L 2441 0
L 2441 556
z
" transform="scale(0.015625)"/>
      <path id="DejaVuSans-443" d="M 2059 -325
Q 1816 -950 1584 -1140
Q 1353 -1331 966 -1331
L 506 -1331
L 506 -850
L 844 -850
Q 1081 -850 1212 -737
Q 1344 -625 1503 -206
L 1606 56
L 191 3500
L 800 3500
L 1894 763
L 2988 3500
L 3597 3500
L 2059 -325
z
" transform="scale(0.015625)"/>
      <path id="DejaVuSans-43d" d="M 581 3500
L 1159 3500
L 1159 2072
L 3025 2072
L 3025 3500
L 3603 3500
L 3603 0
L 3025 0
L 3025 1613
L 1159 1613
L 1159 0
L 581 0
L 581 3500
z
" transform="scale(0.015625)"/>
      <path id="DejaVuSans-43a" d="M 581 3500
L 1153 3500
L 1153 1856
L 2775 3500
L 3481 3500
L 2144 2147
L 3653 0
L 3009 0
L 1769 1766
L 1153 1141
L 1153 0
L 581 0
L 581 3500
z
" transform="scale(0.015625)"/>
      <path id="DejaVuSans-446" d="M 3603 0
L 581 0
L 581 3500
L 1159 3500
L 1159 459
L 3025 459
L 3025 3500
L 3603 3500
L 3603 459
L 4063 459
L 4063 -884
L 3603 -884
L 3603 0
z
" transform="scale(0.015625)"/>
      <path id="DejaVuSans-438" d="M 3578 3500
L 3578 0
L 3006 0
L 3006 2809
L 1319 0
L 581 0
L 581 3500
L 1153 3500
L 1153 697
L 2838 3500
L 3578 3500
z
" transform="scale(0.015625)"/>
      <path id="DejaVuSans-44f" d="M 1181 2491
Q 1181 2231 1381 2084
Q 1581 1938 1953 1938
L 2728 1938
L 2728 3041
L 1953 3041
Q 1581 3041 1381 2897
Q 1181 2753 1181 2491
z
M 363 0
L 1431 1534
Q 1069 1616 828 1830
Q 588 2044 588 2491
Q 588 2997 923 3248
Q 1259 3500 1938 3500
L 3306 3500
L 3306 0
L 2728 0
L 2728 1478
L 2013 1478
L 981 0
L 363 0
z
" transform="scale(0.015625)"/>
      <path id="DejaVuSans-20" transform="scale(0.015625)"/>
      <path id="DejaVuSans-Oblique-66" d="M 3059 4863
L 2969 4384
L 2419 4384
Q 2106 4384 1964 4261
Q 1822 4138 1753 3809
L 1691 3500
L 2638 3500
L 2553 3053
L 1606 3053
L 1013 0
L 434 0
L 1031 3053
L 481 3053
L 563 3500
L 1113 3500
L 1159 3744
Q 1278 4363 1576 4613
Q 1875 4863 2516 4863
L 3059 4863
z
" transform="scale(0.015625)"/>
      <path id="DejaVuSans-435" d="M 3597 1894
L 3597 1613
L 953 1613
Q 991 1019 1311 708
Q 1631 397 2203 397
Q 2534 397 2845 478
Q 3156 559 3463 722
L 3463 178
Q 3153 47 2828 -22
Q 2503 -91 2169 -91
Q 1331 -91 842 396
Q 353 884 353 1716
Q 353 2575 817 3079
Q 1281 3584 2069 3584
Q 2775 3584 3186 3129
Q 3597 2675 3597 1894
z
M 3022 2063
Q 3016 2534 2758 2815
Q 2500 3097 2075 3097
Q 1594 3097 1305 2825
Q 1016 2553 972 2059
L 3022 2063
z
" transform="scale(0.015625)"/>
      <path id="DejaVuSans-43e" d="M 1959 3097
Q 1497 3097 1228 2736
Q 959 2375 959 1747
Q 959 1119 1226 758
Q 1494 397 1959 397
Q 2419 397 2687 759
Q 2956 1122 2956 1747
Q 2956 2369 2687 2733
Q 2419 3097 1959 3097
z
M 1959 3584
Q 2709 3584 3137 3096
Q 3566 2609 3566 1747
Q 3566 888 3137 398
Q 2709 -91 1959 -91
Q 1206 -91 779 398
Q 353 888 353 1747
Q 353 2609 779 3096
Q 1206 3584 1959 3584
z
" transform="scale(0.015625)"/>
      <path id="DejaVuSans-431" d="M 1991 3584
Q 2741 3584 3169 3096
Q 3597 2609 3597 1747
Q 3597 888 3169 398
Q 2741 -91 1991 -91
Q 1238 -91 822 384
Q 406 859 384 1747
L 366 2463
Q 350 2834 350 2963
Q 350 3463 531 3831
Q 816 4409 1308 4659
Q 1800 4909 2625 4916
Q 3006 4919 3175 4972
L 3334 4516
Q 3181 4453 3041 4450
L 2259 4397
Q 1866 4369 1628 4231
Q 1006 3866 947 3388
L 925 3213
Q 1331 3584 1991 3584
z
M 1991 3097
Q 1528 3097 1259 2736
Q 991 2375 991 1747
Q 991 1119 1258 758
Q 1525 397 1991 397
Q 2450 397 2719 759
Q 2988 1122 2988 1747
Q 2988 2369 2719 2733
Q 2450 3097 1991 3097
z
" transform="scale(0.015625)"/>
      <path id="DejaVuSans-437" d="M 2206 1888
Q 2594 1813 2809 1584
Q 3025 1356 3025 1019
Q 3025 478 2622 193
Q 2219 -91 1475 -91
Q 1225 -91 961 -47
Q 697 -3 416 84
L 416 619
Q 638 503 903 445
Q 1169 388 1459 388
Q 1931 388 2195 563
Q 2459 738 2459 1019
Q 2459 1294 2225 1461
Q 1991 1628 1563 1628
L 1100 1628
L 1100 2103
L 1584 2103
Q 1947 2103 2158 2242
Q 2369 2381 2369 2600
Q 2369 2800 2151 2944
Q 1934 3088 1563 3088
Q 1341 3088 1089 3047
Q 838 3006 534 2916
L 534 3438
Q 841 3513 1106 3550
Q 1372 3588 1609 3588
Q 2222 3588 2576 3342
Q 2931 3097 2931 2656
Q 2931 2366 2743 2164
Q 2556 1963 2206 1888
z
" transform="scale(0.015625)"/>
      <path id="DejaVuSans-430" d="M 2194 1759
Q 1497 1759 1228 1600
Q 959 1441 959 1056
Q 959 750 1161 570
Q 1363 391 1709 391
Q 2188 391 2477 730
Q 2766 1069 2766 1631
L 2766 1759
L 2194 1759
z
M 3341 1997
L 3341 0
L 2766 0
L 2766 531
Q 2569 213 2275 61
Q 1981 -91 1556 -91
Q 1019 -91 701 211
Q 384 513 384 1019
Q 384 1609 779 1909
Q 1175 2209 1959 2209
L 2766 2209
L 2766 2266
Q 2766 2663 2505 2880
Q 2244 3097 1772 3097
Q 1472 3097 1187 3025
Q 903 2953 641 2809
L 641 3341
Q 956 3463 1253 3523
Q 1550 3584 1831 3584
Q 2591 3584 2966 3190
Q 3341 2797 3341 1997
z
" transform="scale(0.015625)"/>
      <path id="DejaVuSans-44b" d="M 3907 3500
L 4482 3500
L 4482 0
L 3907 0
L 3907 3500
z
M 4195 3584
L 4195 3584
z
M 2781 1038
Q 2781 1319 2576 1466
Q 2372 1613 1978 1613
L 1159 1613
L 1159 459
L 1978 459
Q 2372 459 2576 607
Q 2781 756 2781 1038
z
M 581 3500
L 1159 3500
L 1159 2072
L 2003 2072
Q 2672 2072 3033 1817
Q 3394 1563 3394 1038
Q 3394 513 3033 256
Q 2672 0 2003 0
L 581 0
L 581 3500
z
" transform="scale(0.015625)"/>
      <path id="DejaVuSans-442" d="M 188 3500
L 3541 3500
L 3541 3041
L 2147 3041
L 2147 0
L 1581 0
L 1581 3041
L 188 3041
L 188 3500
z
" transform="scale(0.015625)"/>
      <path id="DejaVuSans-44c" d="M 2781 1038
Q 2781 1319 2576 1466
Q 2372 1613 1978 1613
L 1159 1613
L 1159 459
L 1978 459
Q 2372 459 2576 607
Q 2781 756 2781 1038
z
M 581 3500
L 1159 3500
L 1159 2072
L 2003 2072
Q 2672 2072 3033 1817
Q 3394 1563 3394 1038
Q 3394 513 3033 256
Q 2672 0 2003 0
L 581 0
L 581 3500
z
" transform="scale(0.015625)"/>
      <path id="DejaVuSans-43f" d="M 3603 3500
L 3603 0
L 3025 0
L 3025 3041
L 1159 3041
L 1159 0
L 581 0
L 581 3500
L 3603 3500
z
" transform="scale(0.015625)"/>
      <path id="DejaVuSans-440" d="M 1159 525
L 1159 -1331
L 581 -1331
L 581 3500
L 1159 3500
L 1159 2969
Q 1341 3281 1617 3432
Q 1894 3584 2278 3584
Q 2916 3584 3314 3078
Q 3713 2572 3713 1747
Q 3713 922 3314 415
Q 2916 -91 2278 -91
Q 1894 -91 1617 61
Q 1341 213 1159 525
z
M 3116 1747
Q 3116 2381 2855 2742
Q 2594 3103 2138 3103
Q 1681 3103 1420 2742
Q 1159 2381 1159 1747
Q 1159 1113 1420 752
Q 1681 391 2138 391
Q 2594 391 2855 752
Q 3116 1113 3116 1747
z
" transform="scale(0.015625)"/>
      <path id="DejaVuSans-441" d="M 3122 3366
L 3122 2828
Q 2878 2963 2633 3030
Q 2388 3097 2138 3097
Q 1578 3097 1268 2742
Q 959 2388 959 1747
Q 959 1106 1268 751
Q 1578 397 2138 397
Q 2388 397 2633 464
Q 2878 531 3122 666
L 3122 134
Q 2881 22 2623 -34
Q 2366 -91 2075 -91
Q 1284 -91 818 406
Q 353 903 353 1747
Q 353 2603 823 3093
Q 1294 3584 2113 3584
Q 2378 3584 2631 3529
Q 2884 3475 3122 3366
z
" transform="scale(0.015625)"/>
      <path id="DejaVuSans-432" d="M 1156 1613
L 1156 459
L 1975 459
Q 2369 459 2575 607
Q 2781 756 2781 1038
Q 2781 1319 2575 1466
Q 2369 1613 1975 1613
L 1156 1613
z
M 1156 3041
L 1156 2072
L 1913 2072
Q 2238 2072 2444 2201
Q 2650 2331 2650 2563
Q 2650 2794 2444 2917
Q 2238 3041 1913 3041
L 1156 3041
z
M 581 3500
L 1950 3500
Q 2566 3500 2897 3275
Q 3228 3050 3228 2634
Q 3228 2313 3059 2123
Q 2891 1934 2559 1888
Q 2956 1813 3175 1575
Q 3394 1338 3394 981
Q 3394 513 3033 256
Q 2672 0 2003 0
L 581 0
L 581 3500
z
" transform="scale(0.015625)"/>
      <path id="DejaVuSans-439" d="M 3578 3500
L 3578 0
L 3006 0
L 3006 2809
L 1319 0
L 581 0
L 581 3500
L 1153 3500
L 1153 697
L 2838 3500
L 3578 3500
z
M 1102 4833
L 1471 4833
Q 1505 4599 1656 4481
Q 1808 4364 2080 4364
Q 2349 4364 2499 4480
Q 2649 4596 2689 4833
L 3058 4833
Q 3027 4386 2780 4161
Q 2533 3936 2080 3936
Q 1627 3936 1380 4161
Q 1133 4386 1102 4833
z
" transform="scale(0.015625)"/>
     </defs>
     <use xlink:href="#DejaVuSans-424" transform="translate(0 0.3125)"/>
     <use xlink:href="#DejaVuSans-443" transform="translate(86.083984 0.3125)"/>
     <use xlink:href="#DejaVuSans-43d" transform="translate(145.263672 0.3125)"/>
     <use xlink:href="#DejaVuSans-43a" transform="translate(210.644531 0.3125)"/>
     <use xlink:href="#DejaVuSans-446" transform="translate(271.044922 0.3125)"/>
     <use xlink:href="#DejaVuSans-438" transform="translate(339.111328 0.3125)"/>
     <use xlink:href="#DejaVuSans-44f" transform="translate(404.101562 0.3125)"/>
     <use xlink:href="#DejaVuSans-20" transform="translate(464.257812 0.3125)"/>
     <use xlink:href="#DejaVuSans-Oblique-66" transform="translate(496.044922 0.3125)"/>
     <use xlink:href="#DejaVuSans-20" transform="translate(531.25 0.3125)"/>
     <use xlink:href="#DejaVuSans-43d" transform="translate(563.037109 0.3125)"/>
     <use xlink:href="#DejaVuSans-435" transform="translate(628.417969 0.3125)"/>
     <use xlink:href="#DejaVuSans-20" transform="translate(689.941406 0.3125)"/>
     <use xlink:href="#DejaVuSans-43e" transform="translate(721.728516 0.3125)"/>
     <use xlink:href="#DejaVuSans-431" transform="translate(782.910156 0.3125)"/>
     <use xlink:href="#DejaVuSans-44f" transform="translate(844.580078 0.3125)"/>
     <use xlink:href="#DejaVuSans-437" transform="translate(904.736328 0.3125)"/>
     <use xlink:href="#DejaVuSans-430" transform="translate(957.910156 0.3125)"/>
     <use xlink:href="#DejaVuSans-43d" transform="translate(1019.189453 0.3125)"/>
     <use xlink:href="#DejaVuSans-430" transform="translate(1084.570312 0.3125)"/>
     <use xlink:href="#DejaVuSans-20" transform="translate(1145.849609 0.3125)"/>
     <use xlink:href="#DejaVuSans-431" transform="translate(1177.636719 0.3125)"/>
     <use xlink:href="#DejaVuSans-44b" transform="translate(1239.306641 0.3125)"/>
     <use xlink:href="#DejaVuSans-442" transform="translate(1318.261719 0.3125)"/>
     <use xlink:href="#DejaVuSans-44c" transform="translate(1376.513672 0.3125)"/>
     <use xlink:href="#DejaVuSans-20" transform="translate(1435.449219 0.3125)"/>
     <use xlink:href="#DejaVuSans-43f" transform="translate(1467.236328 0.3125)"/>
     <use xlink:href="#DejaVuSans-435" transform="translate(1532.617188 0.3125)"/>
     <use xlink:href="#DejaVuSans-440" transform="translate(1594.140625 0.3125)"/>
     <use xlink:href="#DejaVuSans-435" transform="translate(1657.617188 0.3125)"/>
     <use xlink:href="#DejaVuSans-441" transform="translate(1719.140625 0.3125)"/>
     <use xlink:href="#DejaVuSans-442" transform="translate(1774.121094 0.3125)"/>
     <use xlink:href="#DejaVuSans-430" transform="translate(1832.373047 0.3125)"/>
     <use xlink:href="#DejaVuSans-43d" transform="translate(1893.652344 0.3125)"/>
     <use xlink:href="#DejaVuSans-43e" transform="translate(1959.033203 0.3125)"/>
     <use xlink:href="#DejaVuSans-432" transform="translate(2020.214844 0.3125)"/>
     <use xlink:href="#DejaVuSans-43a" transform="translate(2079.150391 0.3125)"/>
     <use xlink:href="#DejaVuSans-43e" transform="translate(2139.550781 0.3125)"/>
     <use xlink:href="#DejaVuSans-439" transform="translate(2200.732422 0.3125)"/>
    </g>
   </g>
   <g id="text_3">
    <!-- Выбранное действие -->
    <g style="fill: #2563eb" transform="translate(82.985938 131.845312) scale(0.2 -0.2)">
     <defs>
      <path id="DejaVuSans-Bold-412" d="M 2456 2859
Q 2741 2859 2887 2984
Q 3034 3109 3034 3353
Q 3034 3594 2887 3720
Q 2741 3847 2456 3847
L 1791 3847
L 1791 2859
L 2456 2859
z
M 2497 819
Q 2859 819 3042 972
Q 3225 1125 3225 1434
Q 3225 1738 3044 1889
Q 2863 2041 2497 2041
L 1791 2041
L 1791 819
L 2497 819
z
M 3616 2497
Q 4003 2384 4215 2081
Q 4428 1778 4428 1338
Q 4428 663 3972 331
Q 3516 0 2584 0
L 588 0
L 588 4666
L 2394 4666
Q 3366 4666 3802 4372
Q 4238 4078 4238 3431
Q 4238 3091 4078 2852
Q 3919 2613 3616 2497
z
" transform="scale(0.015625)"/>
      <path id="DejaVuSans-Bold-44b" d="M 4154 3500
L 5272 3500
L 5272 0
L 4154 0
L 4154 3500
z
M 2719 1094
Q 2719 1291 2594 1388
Q 2472 1481 2222 1481
L 1656 1481
L 1656 700
L 2222 700
Q 2469 700 2594 800
Q 2719 897 2719 1094
z
M 538 3500
L 1656 3500
L 1656 2172
L 2291 2172
Q 3000 2172 3381 1913
Q 3766 1650 3766 1081
Q 3766 513 3381 256
Q 3000 0 2291 0
L 538 0
L 538 3500
z
" transform="scale(0.015625)"/>
      <path id="DejaVuSans-Bold-431" d="M 344 1941
L 322 2463
Q 275 2672 275 2881
Q 275 3494 456 3894
Q 791 4631 1238 4781
Q 1606 4909 3141 5031
Q 3297 5044 3475 5072
L 3725 4378
Q 3488 4316 2269 4209
Q 1734 4163 1516 4013
Q 1153 3766 1125 3300
Q 1584 3584 2275 3584
Q 3178 3584 3686 3096
Q 4194 2609 4194 1747
Q 4194 884 3687 396
Q 3181 -91 2275 -91
Q 1369 -91 858 396
Q 347 884 347 1747
Q 347 1866 344 1941
z
M 2272 2784
Q 1903 2784 1708 2517
Q 1513 2250 1513 1747
Q 1513 1244 1708 976
Q 1903 709 2272 709
Q 2641 709 2834 976
Q 3028 1244 3028 1747
Q 3028 2250 2834 2517
Q 2641 2784 2272 2784
z
" transform="scale(0.015625)"/>
      <path id="DejaVuSans-Bold-440" d="M 1656 506
L 1656 -1331
L 538 -1331
L 538 3500
L 1656 3500
L 1656 2988
Q 1888 3294 2169 3439
Q 2450 3584 2816 3584
Q 3463 3584 3878 3070
Q 4294 2556 4294 1747
Q 4294 938 3878 423
Q 3463 -91 2816 -91
Q 2450 -91 2169 54
Q 1888 200 1656 506
z
M 2400 2772
Q 2041 2772 1848 2508
Q 1656 2244 1656 1747
Q 1656 1250 1848 986
Q 2041 722 2400 722
Q 2759 722 2948 984
Q 3138 1247 3138 1747
Q 3138 2247 2948 2509
Q 2759 2772 2400 2772
z
" transform="scale(0.015625)"/>
     </defs>
     <use xlink:href="#DejaVuSans-Bold-412"/>
     <use xlink:href="#DejaVuSans-Bold-44b" x="76.220703"/>
     <use xlink:href="#DejaVuSans-Bold-431" x="166.650391"/>
     <use xlink:href="#DejaVuSans-Bold-440" x="236.474609"/>
     <use xlink:href="#DejaVuSans-Bold-430" x="308.056641"/>
     <use xlink:href="#DejaVuSans-Bold-43d" x="375.537109"/>
     <use xlink:href="#DejaVuSans-Bold-43d" x="444.628906"/>
     <use xlink:href="#DejaVuSans-Bold-43e" x="513.720703"/>
     <use xlink:href="#DejaVuSans-Bold-435" x="582.421875"/>
     <use xlink:href="#DejaVuSans-Bold-20" x="650.244141"/>
     <use xlink:href="#DejaVuSans-Bold-434" x="685.058594"/>
     <use xlink:href="#DejaVuSans-Bold-435" x="765.820312"/>
     <use xlink:href="#DejaVuSans-Bold-439" x="833.642578"/>
     <use xlink:href="#DejaVuSans-Bold-441" x="903.710938"/>
     <use xlink:href="#DejaVuSans-Bold-442" x="962.988281"/>
     <use xlink:href="#DejaVuSans-Bold-432" x="1020.947266"/>
     <use xlink:href="#DejaVuSans-Bold-438" x="1084.228516"/>
     <use xlink:href="#DejaVuSans-Bold-435" x="1154.296875"/>
    </g>
   </g>
   <g id="text_4">
    <!-- Действие по правилу $f$ -->
    <g style="fill: #15803d" transform="translate(528.5 131.5) scale(0.2 -0.2)">
     <defs>
      <path id="DejaVuSans-Bold-414" d="M 2153 909
L 3453 909
L 3453 3756
L 2444 3756
L 2444 3472
Q 2444 1472 2153 909
z
M 734 909
Q 1059 1125 1150 1442
Q 1241 1759 1241 3784
L 1241 4666
L 4656 4666
L 4656 909
L 5316 909
L 5316 -1003
L 4406 -1003
L 4406 0
L 1294 0
L 1294 -1003
L 384 -1003
L 384 909
L 734 909
z
" transform="scale(0.015625)"/>
      <path id="DejaVuSans-Bold-43f" d="M 3884 3500
L 3884 0
L 2766 0
L 2766 2700
L 1656 2700
L 1656 0
L 538 0
L 538 3500
L 3884 3500
z
" transform="scale(0.015625)"/>
      <path id="DejaVuSans-Bold-43b" d="M 353 0
L 353 800
Q 906 913 1031 1278
Q 1125 1556 1125 2928
L 1125 3500
L 4150 3500
L 4150 0
L 3031 0
L 3031 2700
L 2244 2700
L 2244 2584
Q 2244 1213 2028 813
Q 1591 0 353 0
z
" transform="scale(0.015625)"/>
      <path id="DejaVuSans-Bold-443" d="M 78 3500
L 1197 3500
L 2138 1125
L 2938 3500
L 4056 3500
L 2584 -331
Q 2363 -916 2067 -1148
Q 1772 -1381 1288 -1381
L 641 -1381
L 641 -647
L 991 -647
Q 1275 -647 1404 -556
Q 1534 -466 1606 -231
L 1638 -134
L 78 3500
z
" transform="scale(0.015625)"/>
     </defs>
     <use xlink:href="#DejaVuSans-Bold-414" transform="translate(0 0.578125)"/>
     <use xlink:href="#DejaVuSans-Bold-435" transform="translate(89.0625 0.578125)"/>
     <use xlink:href="#DejaVuSans-Bold-439" transform="translate(156.884766 0.578125)"/>
     <use xlink:href="#DejaVuSans-Bold-441" transform="translate(226.953125 0.578125)"/>
     <use xlink:href="#DejaVuSans-Bold-442" transform="translate(286.230469 0.578125)"/>
     <use xlink:href="#DejaVuSans-Bold-432" transform="translate(344.189453 0.578125)"/>
     <use xlink:href="#DejaVuSans-Bold-438" transform="translate(407.470703 0.578125)"/>
     <use xlink:href="#DejaVuSans-Bold-435" transform="translate(477.539062 0.578125)"/>
     <use xlink:href="#DejaVuSans-Bold-20" transform="translate(545.361328 0.578125)"/>
     <use xlink:href="#DejaVuSans-Bold-43f" transform="translate(580.175781 0.578125)"/>
     <use xlink:href="#DejaVuSans-Bold-43e" transform="translate(649.267578 0.578125)"/>
     <use xlink:href="#DejaVuSans-Bold-20" transform="translate(717.96875 0.578125)"/>
     <use xlink:href="#DejaVuSans-Bold-43f" transform="translate(752.783203 0.578125)"/>
     <use xlink:href="#DejaVuSans-Bold-440" transform="translate(821.875 0.578125)"/>
     <use xlink:href="#DejaVuSans-Bold-430" transform="translate(893.457031 0.578125)"/>
     <use xlink:href="#DejaVuSans-Bold-432" transform="translate(960.9375 0.578125)"/>
     <use xlink:href="#DejaVuSans-Bold-438" transform="translate(1024.21875 0.578125)"/>
     <use xlink:href="#DejaVuSans-Bold-43b" transform="translate(1094.287109 0.578125)"/>
     <use xlink:href="#DejaVuSans-Bold-443" transform="translate(1167.529297 0.578125)"/>
     <use xlink:href="#DejaVuSans-Bold-20" transform="translate(1232.714844 0.578125)"/>
     <use xlink:href="#DejaVuSans-Oblique-66" transform="translate(1267.529297 0.578125)"/>
    </g>
   </g>
   <g id="text_5">
    <!-- $1$ -->
    <g style="fill: #14243c" transform="translate(197.52 193.8225) scale(0.24 -0.24)">
     <defs>
      <path id="DejaVuSans-31" d="M 794 531
L 1825 531
L 1825 4091
L 703 3866
L 703 4441
L 1819 4666
L 2450 4666
L 2450 531
L 3481 531
L 3481 0
L 794 0
L 794 531
z
" transform="scale(0.015625)"/>
     </defs>
     <use xlink:href="#DejaVuSans-31" transform="translate(0 0.09375)"/>
    </g>
   </g>
   <g id="text_6">
    <!-- $1$ -->
    <g style="fill: #14243c" transform="translate(651.12 193.8225) scale(0.24 -0.24)">
     <use xlink:href="#DejaVuSans-31" transform="translate(0 0.09375)"/>
    </g>
   </g>
   <g id="text_7">
    <!-- $2$ -->
    <g style="fill: #14243c" transform="translate(197.52 273.0225) scale(0.24 -0.24)">
     <defs>
      <path id="DejaVuSans-32" d="M 1228 531
L 3431 531
L 3431 0
L 469 0
L 469 531
Q 828 903 1448 1529
Q 2069 2156 2228 2338
Q 2531 2678 2651 2914
Q 2772 3150 2772 3378
Q 2772 3750 2511 3984
Q 2250 4219 1831 4219
Q 1534 4219 1204 4116
Q 875 4013 500 3803
L 500 4441
Q 881 4594 1212 4672
Q 1544 4750 1819 4750
Q 2544 4750 2975 4387
Q 3406 4025 3406 3419
Q 3406 3131 3298 2873
Q 3191 2616 2906 2266
Q 2828 2175 2409 1742
Q 1991 1309 1228 531
z
" transform="scale(0.015625)"/>
     </defs>
     <use xlink:href="#DejaVuSans-32" transform="translate(0 0.78125)"/>
    </g>
   </g>
   <g id="text_8">
    <!-- $2$ -->
    <g style="fill: #14243c" transform="translate(651.12 273.0225) scale(0.24 -0.24)">
     <use xlink:href="#DejaVuSans-32" transform="translate(0 0.78125)"/>
    </g>
   </g>
   <g id="text_9">
    <!-- $3$ -->
    <g style="fill: #14243c" transform="translate(197.52 352.2225) scale(0.24 -0.24)">
     <defs>
      <path id="DejaVuSans-33" d="M 2597 2516
Q 3050 2419 3304 2112
Q 3559 1806 3559 1356
Q 3559 666 3084 287
Q 2609 -91 1734 -91
Q 1441 -91 1130 -33
Q 819 25 488 141
L 488 750
Q 750 597 1062 519
Q 1375 441 1716 441
Q 2309 441 2620 675
Q 2931 909 2931 1356
Q 2931 1769 2642 2001
Q 2353 2234 1838 2234
L 1294 2234
L 1294 2753
L 1863 2753
Q 2328 2753 2575 2939
Q 2822 3125 2822 3475
Q 2822 3834 2567 4026
Q 2313 4219 1838 4219
Q 1578 4219 1281 4162
Q 984 4106 628 3988
L 628 4550
Q 988 4650 1302 4700
Q 1616 4750 1894 4750
Q 2613 4750 3031 4423
Q 3450 4097 3450 3541
Q 3450 3153 3228 2886
Q 3006 2619 2597 2516
z
" transform="scale(0.015625)"/>
     </defs>
     <use xlink:href="#DejaVuSans-33" transform="translate(0 0.78125)"/>
    </g>
   </g>
   <g id="text_10">
    <!-- $3$ -->
    <g style="fill: #14243c" transform="translate(651.12 352.2225) scale(0.24 -0.24)">
     <use xlink:href="#DejaVuSans-33" transform="translate(0 0.78125)"/>
    </g>
   </g>
   <g id="text_11">
    <!-- $f(1)=2,\quad f(2)=2,\quad f(3)=1$ -->
    <g style="fill: #14243c" transform="translate(286.26 419.074687) scale(0.21 -0.21)">
     <defs>
      <path id="DejaVuSans-28" d="M 1984 4856
Q 1566 4138 1362 3434
Q 1159 2731 1159 2009
Q 1159 1288 1364 580
Q 1569 -128 1984 -844
L 1484 -844
Q 1016 -109 783 600
Q 550 1309 550 2009
Q 550 2706 781 3412
Q 1013 4119 1484 4856
L 1984 4856
z
" transform="scale(0.015625)"/>
      <path id="DejaVuSans-29" d="M 513 4856
L 1013 4856
Q 1481 4119 1714 3412
Q 1947 2706 1947 2009
Q 1947 1309 1714 600
Q 1481 -109 1013 -844
L 513 -844
Q 928 -128 1133 580
Q 1338 1288 1338 2009
Q 1338 2731 1133 3434
Q 928 4138 513 4856
z
" transform="scale(0.015625)"/>
      <path id="DejaVuSans-3d" d="M 678 2906
L 4684 2906
L 4684 2381
L 678 2381
L 678 2906
z
M 678 1631
L 4684 1631
L 4684 1100
L 678 1100
L 678 1631
z
" transform="scale(0.015625)"/>
      <path id="DejaVuSans-2c" d="M 750 794
L 1409 794
L 1409 256
L 897 -744
L 494 -744
L 750 256
L 750 794
z
" transform="scale(0.015625)"/>
     </defs>
     <use xlink:href="#DejaVuSans-Oblique-66" transform="translate(0 0.015625)"/>
     <use xlink:href="#DejaVuSans-28" transform="translate(35.205078 0.015625)"/>
     <use xlink:href="#DejaVuSans-31" transform="translate(74.21875 0.015625)"/>
     <use xlink:href="#DejaVuSans-29" transform="translate(137.841797 0.015625)"/>
     <use xlink:href="#DejaVuSans-3d" transform="translate(196.337891 0.015625)"/>
     <use xlink:href="#DejaVuSans-32" transform="translate(299.609375 0.015625)"/>
     <use xlink:href="#DejaVuSans-2c" transform="translate(363.232422 0.015625)"/>
     <use xlink:href="#DejaVuSans-Oblique-66" transform="translate(511.914062 0.015625)"/>
     <use xlink:href="#DejaVuSans-28" transform="translate(547.119141 0.015625)"/>
     <use xlink:href="#DejaVuSans-32" transform="translate(586.132812 0.015625)"/>
     <use xlink:href="#DejaVuSans-29" transform="translate(649.755859 0.015625)"/>
     <use xlink:href="#DejaVuSans-3d" transform="translate(708.251953 0.015625)"/>
     <use xlink:href="#DejaVuSans-32" transform="translate(811.523438 0.015625)"/>
     <use xlink:href="#DejaVuSans-2c" transform="translate(875.146484 0.015625)"/>
     <use xlink:href="#DejaVuSans-Oblique-66" transform="translate(1023.828125 0.015625)"/>
     <use xlink:href="#DejaVuSans-28" transform="translate(1059.033203 0.015625)"/>
     <use xlink:href="#DejaVuSans-33" transform="translate(1098.046875 0.015625)"/>
     <use xlink:href="#DejaVuSans-29" transform="translate(1161.669922 0.015625)"/>
     <use xlink:href="#DejaVuSans-3d" transform="translate(1220.166016 0.015625)"/>
     <use xlink:href="#DejaVuSans-31" transform="translate(1323.4375 0.015625)"/>
    </g>
   </g>
   <g id="text_12">
    <!-- Две стрелки сходятся в $2$ -->
    <g style="fill: #7c3aed" transform="translate(316.91 445.296406) scale(0.17 -0.17)">
     <defs>
      <path id="DejaVuSans-414" d="M 1459 531
L 3522 531
L 3522 4134
L 2006 4134
L 2006 3472
Q 2006 1913 1656 878
Q 1584 666 1459 531
z
M 538 531
Q 956 728 1075 1103
Q 1378 2066 1378 3784
L 1378 4666
L 4153 4666
L 4153 531
L 4684 531
L 4684 -1003
L 4153 -1003
L 4153 0
L 847 0
L 847 -1003
L 316 -1003
L 316 531
L 538 531
z
" transform="scale(0.015625)"/>
      <path id="DejaVuSans-43b" d="M 238 0
L 238 478
Q 806 566 981 959
Q 1194 1513 1194 2928
L 1194 3500
L 3559 3500
L 3559 0
L 2984 0
L 2984 3041
L 1769 3041
L 1769 2694
Q 1769 1344 1494 738
Q 1200 91 238 0
z
" transform="scale(0.015625)"/>
      <path id="DejaVuSans-445" d="M 3513 3500
L 2247 1797
L 3578 0
L 2900 0
L 1881 1375
L 863 0
L 184 0
L 1544 1831
L 300 3500
L 978 3500
L 1906 2253
L 2834 3500
L 3513 3500
z
" transform="scale(0.015625)"/>
      <path id="DejaVuSans-434" d="M 1384 459
L 3053 459
L 3053 3041
L 1844 3041
L 1844 2603
Q 1844 1316 1475 628
L 1384 459
z
M 550 459
Q 834 584 959 850
Q 1266 1509 1266 2838
L 1266 3500
L 3631 3500
L 3631 459
L 4091 459
L 4091 -884
L 3631 -884
L 3631 0
L 794 0
L 794 -884
L 334 -884
L 334 459
L 550 459
z
" transform="scale(0.015625)"/>
     </defs>
     <use xlink:href="#DejaVuSans-414" transform="translate(0 0.78125)"/>
     <use xlink:href="#DejaVuSans-432" transform="translate(78.125 0.78125)"/>
     <use xlink:href="#DejaVuSans-435" transform="translate(137.060547 0.78125)"/>
     <use xlink:href="#DejaVuSans-20" transform="translate(198.583984 0.78125)"/>
     <use xlink:href="#DejaVuSans-441" transform="translate(230.371094 0.78125)"/>
     <use xlink:href="#DejaVuSans-442" transform="translate(285.351562 0.78125)"/>
     <use xlink:href="#DejaVuSans-440" transform="translate(343.603516 0.78125)"/>
     <use xlink:href="#DejaVuSans-435" transform="translate(407.080078 0.78125)"/>
     <use xlink:href="#DejaVuSans-43b" transform="translate(468.603516 0.78125)"/>
     <use xlink:href="#DejaVuSans-43a" transform="translate(532.519531 0.78125)"/>
     <use xlink:href="#DejaVuSans-438" transform="translate(592.919922 0.78125)"/>
     <use xlink:href="#DejaVuSans-20" transform="translate(657.910156 0.78125)"/>
     <use xlink:href="#DejaVuSans-441" transform="translate(689.697266 0.78125)"/>
     <use xlink:href="#DejaVuSans-445" transform="translate(744.677734 0.78125)"/>
     <use xlink:href="#DejaVuSans-43e" transform="translate(803.857422 0.78125)"/>
     <use xlink:href="#DejaVuSans-434" transform="translate(865.039062 0.78125)"/>
     <use xlink:href="#DejaVuSans-44f" transform="translate(934.179688 0.78125)"/>
     <use xlink:href="#DejaVuSans-442" transform="translate(994.335938 0.78125)"/>
     <use xlink:href="#DejaVuSans-441" transform="translate(1052.587891 0.78125)"/>
     <use xlink:href="#DejaVuSans-44f" transform="translate(1107.568359 0.78125)"/>
     <use xlink:href="#DejaVuSans-20" transform="translate(1167.724609 0.78125)"/>
     <use xlink:href="#DejaVuSans-432" transform="translate(1199.511719 0.78125)"/>
     <use xlink:href="#DejaVuSans-20" transform="translate(1258.447266 0.78125)"/>
     <use xlink:href="#DejaVuSans-32" transform="translate(1290.234375 0.78125)"/>
    </g>
   </g>
  </g>
 </g>
 <defs>
  <clipPath id="pd35868930f">
   <rect x="0" y="0" width="864" height="489.6"/>
  </clipPath>
 </defs>
</svg>
